<?xml version="1.0" encoding="UTF-8" standalone="no"?>
<!DOCTYPE svg PUBLIC "-//W3C//DTD SVG 1.1//EN" "http://www.w3.org/Graphics/SVG/1.1/DTD/svg11.dtd">
<svg version="1.1" xmlns="http://www.w3.org/2000/svg" xmlns:xlink="http://www.w3.org/1999/xlink" preserveAspectRatio="xMidYMid meet" viewBox="0 0 640 640" width="640" height="640"><defs><path d="M571.42 202.46C636.95 339.98 577.52 504.08 438.67 568.98C299.81 633.89 134.12 575.03 68.58 437.51C3.05 299.99 62.48 135.89 201.33 70.99C326.55 12.45 476.17 54.1 552.26 168.66" id="arFnXiYk5"></path><path d="M320 0L320 640" id="d3czvRXYqa"></path><path d="M640 320L0 320" id="b17HNfQfRP"></path><path d="M160 42.87L480 597.13" id="g2DQK8nsi6"></path><path d="M480 42.87L160 597.13" id="c1cL2Chsyc"></path><path d="M42.87 160L597.13 480" id="clWio7KSQ"></path><path d="M597.13 160L42.87 480" id="aJFsPEhVP"></path><path d="M549.98 212.48C609.93 338.28 555.56 488.38 428.55 547.76C301.53 607.13 149.97 553.29 90.02 427.49C30.07 301.7 84.44 151.59 211.45 92.21C325.99 38.67 462.85 76.77 532.46 181.56" id="e1ON53Ce2"></path><path d="M323.92 318.17C324.94 320.31 324.02 322.87 321.85 323.89C319.69 324.9 317.1 323.98 316.08 321.84C315.06 319.69 315.98 317.13 318.15 316.12C320.1 315.21 322.44 315.85 323.62 317.64" id="a5izmtyUu"></path><path d="M295.27 130.51L307.84 130.51L307.84 85.43C301.65 85.43 298.21 85.43 297.52 85.43C294.83 90.94 290.64 94.59 282.2 97.32C282.2 98.33 282.2 106.4 282.2 107.41C285.01 106.55 287.39 105.62 289.33 104.69C291.27 103.76 293.2 102.52 295.27 100.97C295.27 102.94 295.27 112.79 295.27 130.51" id="f4KznCRWu5"></path><path d="M320.47 130.51L357.8 130.51L357.8 120.48C346.17 120.48 339.71 120.48 338.42 120.48C339.54 119.37 340.54 118.5 341.36 117.82C342.17 117.14 343.86 115.9 346.36 114.16C350.61 111.25 353.55 108.53 355.11 106.11C356.68 103.63 357.49 101.03 357.49 98.31C357.49 95.77 356.8 93.54 355.36 91.5C352.61 87.35 348.23 85.43 339.48 85.43C326.91 85.74 323.22 89.45 321.41 99.55C322.65 99.65 332.61 100.49 333.85 100.6C334.6 95.58 336.6 93.85 339.79 93.85C342.86 93.85 345.11 96.08 345.11 98.74C345.11 100.04 344.61 101.34 343.54 102.77C342.54 104.13 340.23 106.17 336.6 108.84C330.66 113.23 326.6 117.01 324.41 120.23C322.22 123.45 320.91 126.86 320.47 130.51" id="d3Y66K3Vd"></path><path d="M418.66 156.82L431.23 156.82L431.23 111.73C425.04 111.73 421.6 111.73 420.91 111.73C418.22 117.25 414.03 120.9 405.59 123.62C405.59 124.63 405.59 132.71 405.59 133.72C408.4 132.85 410.78 131.92 412.72 130.99C414.66 130.06 416.6 128.83 418.66 127.28C418.66 129.25 418.66 139.09 418.66 156.82" id="c2vaiyEzT"></path><path d="M487.66 229.72L524.99 229.72L524.99 219.68C513.36 219.68 506.9 219.68 505.61 219.68C506.73 218.57 507.73 217.7 508.55 217.02C509.36 216.34 511.05 215.1 513.55 213.37C517.8 210.45 520.74 207.73 522.3 205.31C523.87 202.84 524.68 200.24 524.68 197.51C524.68 194.97 523.99 192.74 522.55 190.7C519.8 186.55 515.42 184.63 506.67 184.63C494.1 184.94 490.41 188.65 488.6 198.75C489.84 198.85 499.8 199.7 501.04 199.8C501.79 194.79 503.79 193.05 506.98 193.05C510.05 193.05 512.3 195.28 512.3 197.94C512.3 199.24 511.8 200.55 510.73 201.97C509.73 203.33 507.42 205.38 503.79 208.04C497.85 212.44 493.79 216.21 491.6 219.43C489.41 222.65 488.1 226.06 487.66 229.72" id="ab069vhlA"></path><path d="M532.14 310.68C532.83 306.28 534.64 304.8 537.58 304.8C540.4 304.8 542.15 306.53 542.15 309.19C542.15 311.98 539.71 314.4 536.46 314.4C536.02 314.4 535.52 314.33 534.83 314.27C534.77 315.15 534.27 322.19 534.21 323.07C535.89 322.57 537.27 322.32 538.21 322.32C541.9 322.32 544.15 324.68 544.15 328.83C544.15 332.85 541.65 335.45 538.33 335.45C535.14 335.45 533.14 333.84 532.14 328.89C530.9 329.05 520.94 330.34 519.7 330.5C522.57 338.73 526.51 342.82 538.65 342.88C542.84 342.88 546.15 342.26 548.71 341.03C553.9 338.49 556.66 333.28 556.66 328.14C556.66 323.99 554.97 321.02 551.97 319.23C551.03 318.67 549.71 318.17 548.03 317.74C552.28 315.45 554.4 312.29 554.4 308.51C554.4 305.23 553.09 302.5 550.46 300.34C547.9 298.17 543.65 297.12 537.83 297.12C527.64 297.12 522.32 301.2 520.38 308.64C521.17 308.77 525.09 309.45 532.14 310.68" id="bDlRpzHBa"></path><path d="M524.99 434.27L524.99 443.81L519.36 443.81L519.36 452.11L508.55 452.11L508.55 443.81L485.91 443.81L485.91 433.71L508.55 407.02L519.36 407.02L519.36 434.27L524.99 434.27ZM508.55 434.27L508.55 420.34L496.54 434.27L508.55 434.27Z" id="cdJJiYUBo"></path><path d="M411.16 483.03L407.22 506.87C413.56 507.77 417.08 508.26 417.79 508.36C418.79 507.31 419.72 506.5 420.54 506.07C421.66 505.51 422.85 505.2 424.04 505.2C427.79 505.2 430.29 507.62 430.29 512.88C430.29 518.02 427.79 520.62 424.29 520.62C421.22 520.62 418.72 518.52 418.16 514.49C416.9 514.63 406.85 515.72 405.59 515.85C406.78 520.07 408.47 522.6 411.41 524.83C414.41 527 418.47 528.05 424.41 528.05C428.54 528.05 431.92 527.37 434.54 526.01C439.8 523.29 442.8 517.46 442.8 511.77C442.8 507.68 441.42 504.27 438.61 501.61C435.8 498.95 432.17 497.58 427.73 497.58C425.04 497.58 422.35 498.27 419.6 499.5C419.67 499.06 420.02 496.85 420.66 492.88L440.67 492.88L440.67 483.03L411.16 483.03" id="dq6kv8cRH"></path><path d="M322.45 511.1L323.22 511.15L323.97 511.21L324.69 511.28L325.39 511.37L326.06 511.48L326.7 511.6L327.32 511.74L327.92 511.89L328.5 512.06L329.05 512.24L329.58 512.44L330.09 512.66L330.58 512.89L331.05 513.13L331.5 513.4L331.93 513.67L332.35 513.96L332.74 514.27L333.12 514.59L333.49 514.93L333.84 515.28L334.17 515.65L334.5 516.03L334.8 516.43L335.1 516.84L335.38 517.26L335.66 517.71L335.92 518.16L336.17 518.63L336.41 519.12L336.65 519.62L336.87 520.14L337.09 520.67L337.3 521.21L337.51 521.77L325.13 523.32L325.07 523.05L325.01 522.78L324.94 522.52L324.88 522.27L324.8 522.04L324.73 521.81L324.65 521.59L324.57 521.37L324.48 521.17L324.39 520.98L324.3 520.79L324.2 520.62L324.1 520.45L324 520.29L323.89 520.14L323.78 519.99L323.67 519.86L323.55 519.73L323.43 519.61L323.31 519.5L323.18 519.39L323.05 519.29L322.92 519.2L322.78 519.12L322.64 519.04L322.5 518.97L322.35 518.91L322.2 518.85L322.04 518.8L321.88 518.75L321.72 518.72L321.56 518.69L321.39 518.66L321.22 518.64L321.05 518.63L320.87 518.62L320.69 518.61L320.52 518.62L320.36 518.62L320.2 518.63L320.04 518.65L319.88 518.67L319.72 518.69L319.57 518.72L319.42 518.75L319.27 518.79L319.12 518.83L318.98 518.88L318.84 518.93L318.7 518.98L318.56 519.04L318.42 519.11L318.29 519.18L318.15 519.25L318.02 519.33L317.9 519.41L317.77 519.49L317.65 519.58L317.52 519.68L317.4 519.78L317.29 519.88L317.17 519.99L317.06 520.1L316.94 520.22L316.84 520.34L316.73 520.47L316.62 520.6L316.52 520.74L316.42 520.88L316.32 521.02L316.22 521.17L316.12 521.33L316.03 521.49L315.94 521.65L315.87 521.77L315.81 521.9L315.74 522.03L315.68 522.17L315.62 522.32L315.56 522.47L315.5 522.64L315.44 522.81L315.39 522.99L315.33 523.17L315.27 523.36L315.22 523.56L315.17 523.77L315.12 523.98L315.07 524.21L315.02 524.44L314.97 524.67L314.92 524.92L314.87 525.17L314.83 525.43L314.78 525.69L314.74 525.96L314.69 526.24L314.65 526.53L314.61 526.83L314.57 527.13L314.53 527.44L314.49 527.76L314.45 528.08L314.42 528.41L314.38 528.75L314.35 529.1L314.31 529.45L314.28 529.81L314.25 530.18L314.21 530.56L314.18 530.94L314.42 530.7L314.66 530.47L314.9 530.25L315.14 530.03L315.38 529.82L315.61 529.61L315.85 529.42L316.1 529.23L316.34 529.04L316.58 528.87L316.83 528.7L317.07 528.53L317.32 528.37L317.57 528.22L317.82 528.08L318.07 527.94L318.33 527.81L318.59 527.69L318.85 527.57L319.11 527.46L319.38 527.35L319.65 527.25L319.92 527.16L320.2 527.08L320.48 527L320.77 526.92L321.05 526.86L321.35 526.8L321.64 526.74L321.94 526.7L322.25 526.66L322.56 526.62L322.88 526.59L323.2 526.57L323.52 526.55L323.85 526.55L324.19 526.54L324.51 526.55L324.83 526.55L325.15 526.57L325.47 526.59L325.78 526.62L326.09 526.65L326.39 526.7L326.7 526.74L327 526.8L327.3 526.85L327.59 526.92L327.89 526.99L328.18 527.07L328.46 527.15L328.75 527.24L329.03 527.34L329.31 527.44L329.59 527.55L329.86 527.67L330.13 527.79L330.4 527.92L330.67 528.05L330.93 528.19L331.19 528.34L331.45 528.49L331.7 528.65L331.95 528.82L332.2 528.99L332.45 529.17L332.69 529.35L332.93 529.54L333.17 529.74L333.41 529.94L333.64 530.15L333.87 530.37L334.1 530.59L334.32 530.82L334.54 531.04L334.76 531.27L334.96 531.51L335.17 531.75L335.36 531.99L335.55 532.23L335.73 532.48L335.91 532.74L336.08 532.99L336.25 533.25L336.41 533.51L336.56 533.78L336.71 534.05L336.85 534.32L336.99 534.6L337.12 534.88L337.24 535.16L337.36 535.45L337.47 535.74L337.58 536.03L337.68 536.33L337.77 536.63L337.86 536.93L337.94 537.24L338.01 537.55L338.08 537.86L338.15 538.18L338.2 538.5L338.26 538.82L338.3 539.15L338.34 539.48L338.37 539.81L338.4 540.15L338.42 540.49L338.44 540.83L338.45 541.18L338.45 541.53L338.43 542.25L338.38 542.96L338.3 543.67L338.2 544.35L338.07 545.03L337.92 545.69L337.74 546.34L337.54 546.98L337.31 547.6L337.05 548.2L336.78 548.79L336.47 549.37L336.14 549.92L335.79 550.46L335.42 550.99L335.01 551.49L334.59 551.97L334.14 552.44L333.67 552.88L333.17 553.31L332.65 553.71L332.11 554.09L331.54 554.45L330.95 554.78L330.34 555.1L329.7 555.38L329.05 555.65L328.37 555.89L327.66 556.1L326.94 556.29L326.19 556.45L325.42 556.58L324.63 556.69L323.82 556.77L322.98 556.82L322.13 556.84L321.25 556.83L320.53 556.82L319.83 556.8L319.15 556.77L318.48 556.73L317.83 556.67L317.2 556.6L316.58 556.52L315.97 556.43L315.38 556.32L314.81 556.2L314.25 556.06L313.7 555.91L313.17 555.75L312.65 555.57L312.15 555.38L311.66 555.18L311.18 554.96L310.71 554.73L310.26 554.48L309.82 554.22L309.39 553.94L308.98 553.65L308.57 553.34L308.18 553.02L307.8 552.69L307.43 552.33L307.07 551.97L306.72 551.58L306.38 551.18L306.04 550.77L305.72 550.34L305.41 549.89L305.11 549.43L304.82 548.95L304.53 548.45L304.26 547.94L303.99 547.41L303.86 547.14L303.73 546.86L303.61 546.58L303.49 546.29L303.38 546L303.26 545.7L303.16 545.4L303.05 545.1L302.95 544.79L302.85 544.47L302.76 544.15L302.67 543.83L302.58 543.5L302.49 543.16L302.41 542.83L302.34 542.48L302.26 542.14L302.19 541.78L302.13 541.43L302.07 541.07L302.01 540.7L301.95 540.33L301.9 539.96L301.85 539.58L301.81 539.19L301.77 538.8L301.73 538.41L301.7 538.01L301.67 537.61L301.64 537.2L301.62 536.79L301.6 536.37L301.58 535.95L301.57 535.53L301.56 535.1L301.55 534.66L301.55 534.22L301.57 532.94L301.61 531.7L301.69 530.49L301.8 529.33L301.94 528.2L302.11 527.11L302.31 526.06L302.54 525.05L302.79 524.07L303.08 523.13L303.4 522.23L303.74 521.37L304.11 520.54L304.52 519.75L304.94 518.99L305.4 518.27L305.88 517.59L306.39 516.94L306.93 516.32L307.49 515.74L308.08 515.2L308.69 514.69L309.33 514.22L310 513.77L310.69 513.37L311.4 512.99L312.14 512.66L312.9 512.35L313.69 512.08L314.5 511.84L315.34 511.63L316.19 511.45L317.07 511.31L317.97 511.2L318.9 511.12L319.85 511.07L320.81 511.06L321.65 511.07L322.45 511.1ZM318.28 534.7L317.24 535.29L316.33 536.11L315.59 537.15L315.03 538.4L314.68 539.86L314.56 541.53L314.69 543.23L315.05 544.74L315.64 546.06L316.41 547.16L317.35 548.04L318.44 548.68L319.64 549.07L320.94 549.21L322.12 549.1L323.2 548.76L324.17 548.19L325 547.39L325.69 546.36L326.2 545.11L326.52 543.62L326.63 541.9L326.51 540.13L326.18 538.59L325.66 537.27L324.95 536.18L324.08 535.33L323.07 534.72L321.93 534.35L320.69 534.22L319.44 534.34L318.28 534.7Z" id="b1PcSO38i"></path><path d="M208.34 533.96C215.77 533.96 219.9 533.96 220.73 533.96C221.16 528.76 221.91 524.24 223.1 520.46C224.6 515.57 226.67 511.11 229.23 507.08C231.29 503.8 233.92 500.76 237.11 497.91C237.11 497.36 237.11 494.6 237.11 489.62L200.78 489.62L200.78 500.02C214.06 500.02 221.44 500.02 222.91 500.02C218.35 505.59 215.04 510.86 212.91 515.75C210.85 520.64 209.28 526.71 208.34 533.96" id="bsRq5PGwH"></path><path d="M131.64 413.62L132.22 413.64L132.8 413.67L133.37 413.71L133.92 413.75L134.47 413.8L135 413.86L135.52 413.93L136.04 414.01L136.54 414.09L137.03 414.18L137.51 414.28L137.98 414.39L138.43 414.51L138.88 414.64L139.32 414.77L139.74 414.91L140.16 415.06L140.56 415.22L140.95 415.38L141.33 415.56L141.7 415.74L142.06 415.93L142.41 416.13L142.74 416.34L143.07 416.56L143.38 416.78L143.69 417.01L143.98 417.25L144.26 417.48L144.53 417.72L144.8 417.97L145.05 418.22L145.29 418.48L145.52 418.73L145.74 419L145.95 419.27L146.15 419.54L146.34 419.81L146.52 420.09L146.69 420.38L146.85 420.67L147 420.96L147.13 421.26L147.26 421.56L147.38 421.87L147.49 422.18L147.59 422.49L147.67 422.81L147.75 423.13L147.82 423.46L147.87 423.79L147.92 424.12L147.96 424.46L147.98 424.8L148 425.15L148 425.5L148 425.71L147.99 425.92L147.98 426.13L147.97 426.33L147.95 426.54L147.93 426.74L147.9 426.95L147.87 427.15L147.84 427.35L147.8 427.55L147.76 427.75L147.71 427.94L147.66 428.14L147.6 428.33L147.54 428.53L147.48 428.72L147.41 428.91L147.34 429.1L147.26 429.29L147.18 429.48L147.09 429.67L147 429.86L146.91 430.04L146.81 430.23L146.71 430.41L146.6 430.59L146.49 430.77L146.37 430.95L146.25 431.13L146.16 431.27L146.07 431.4L145.98 431.54L145.88 431.67L145.78 431.8L145.68 431.93L145.57 432.06L145.45 432.2L145.34 432.33L145.21 432.46L145.09 432.59L144.96 432.72L144.83 432.85L144.69 432.97L144.56 433.1L144.41 433.23L144.27 433.36L144.12 433.48L143.96 433.61L143.81 433.74L143.65 433.86L143.48 433.99L143.32 434.11L143.15 434.24L142.97 434.36L142.8 434.48L142.62 434.61L142.43 434.73L142.25 434.85L142.74 435.09L143.21 435.35L143.66 435.61L144.1 435.89L144.52 436.18L144.92 436.48L145.31 436.79L145.68 437.11L146.03 437.44L146.36 437.78L146.68 438.12L146.98 438.48L147.26 438.85L147.52 439.23L147.77 439.61L148 440L148.22 440.4L148.41 440.81L148.59 441.23L148.75 441.65L148.9 442.08L149.02 442.52L149.13 442.96L149.23 443.41L149.3 443.87L149.36 444.33L149.41 444.8L149.43 445.27L149.44 445.75L149.43 446.2L149.41 446.65L149.37 447.1L149.31 447.55L149.24 447.99L149.16 448.42L149.06 448.86L148.95 449.28L148.82 449.71L148.68 450.12L148.53 450.53L148.37 450.93L148.19 451.33L148.01 451.72L147.81 452.1L147.6 452.47L147.38 452.84L147.15 453.19L146.92 453.54L146.67 453.88L146.42 454.2L146.16 454.52L145.89 454.82L145.61 455.12L145.32 455.4L145.03 455.67L144.74 455.93L144.43 456.17L144.12 456.4L143.81 456.61L143.48 456.81L143.14 457L142.79 457.18L142.43 457.36L142.06 457.53L141.67 457.69L141.28 457.84L140.88 457.99L140.47 458.13L140.05 458.26L139.62 458.38L139.19 458.49L138.74 458.6L138.29 458.7L137.83 458.8L137.37 458.88L136.9 458.96L136.42 459.04L135.94 459.1L135.45 459.16L134.95 459.21L134.45 459.25L133.95 459.29L133.44 459.32L132.93 459.34L132.41 459.36L131.89 459.37L131.37 459.37L130.41 459.37L129.48 459.34L128.59 459.3L127.74 459.25L126.91 459.18L126.12 459.09L125.36 458.99L124.63 458.87L123.92 458.74L123.25 458.59L122.6 458.42L121.98 458.24L121.39 458.05L120.82 457.84L120.28 457.61L119.76 457.37L119.26 457.11L118.79 456.84L118.33 456.56L117.9 456.25L117.49 455.94L117.09 455.61L116.72 455.26L116.36 454.9L116.02 454.52L115.69 454.13L115.38 453.73L115.08 453.31L114.8 452.87L114.66 452.65L114.53 452.42L114.41 452.19L114.29 451.96L114.18 451.73L114.07 451.5L113.96 451.27L113.86 451.03L113.77 450.8L113.68 450.56L113.59 450.32L113.51 450.08L113.44 449.83L113.37 449.59L113.3 449.34L113.24 449.09L113.18 448.84L113.13 448.59L113.08 448.34L113.04 448.08L113 447.82L112.97 447.56L112.94 447.3L112.91 447.04L112.89 446.77L112.88 446.5L112.87 446.23L112.86 445.96L112.86 445.69L112.87 445.15L112.89 444.63L112.93 444.12L113 443.62L113.07 443.14L113.17 442.66L113.29 442.19L113.42 441.74L113.57 441.3L113.73 440.86L113.92 440.44L114.12 440.03L114.34 439.64L114.58 439.25L114.84 438.87L115.12 438.51L115.41 438.16L115.72 437.82L116.05 437.49L116.4 437.17L116.76 436.87L117.15 436.58L117.55 436.29L117.97 436.02L118.41 435.76L118.87 435.52L119.35 435.28L119.85 435.06L120.36 434.85L120.16 434.74L119.97 434.63L119.78 434.52L119.59 434.41L119.4 434.3L119.22 434.19L119.04 434.08L118.87 433.96L118.7 433.85L118.53 433.74L118.37 433.62L118.21 433.51L118.06 433.39L117.9 433.27L117.75 433.16L117.61 433.04L117.47 432.92L117.33 432.8L117.19 432.68L117.06 432.56L116.94 432.44L116.81 432.32L116.69 432.2L116.58 432.07L116.46 431.95L116.35 431.82L116.25 431.7L116.14 431.57L116.05 431.44L115.92 431.26L115.81 431.08L115.7 430.9L115.59 430.71L115.48 430.52L115.38 430.33L115.28 430.14L115.19 429.95L115.1 429.76L115.02 429.56L114.94 429.36L114.86 429.16L114.79 428.96L114.73 428.75L114.66 428.54L114.6 428.34L114.55 428.13L114.5 427.91L114.45 427.7L114.41 427.48L114.37 427.26L114.34 427.04L114.31 426.82L114.29 426.59L114.27 426.37L114.25 426.14L114.24 425.91L114.23 425.67L114.23 425.44L114.24 425.05L114.26 424.68L114.29 424.3L114.33 423.94L114.39 423.57L114.46 423.22L114.54 422.86L114.63 422.52L114.74 422.17L114.86 421.83L114.99 421.5L115.13 421.17L115.29 420.85L115.46 420.53L115.64 420.22L115.83 419.91L116.04 419.6L116.26 419.3L116.49 419.01L116.73 418.72L116.99 418.43L117.26 418.16L117.54 417.88L117.83 417.61L118.14 417.34L118.45 417.08L118.79 416.83L119.13 416.58L119.49 416.33L119.77 416.15L120.07 415.97L120.37 415.8L120.67 415.64L120.99 415.48L121.31 415.33L121.63 415.18L121.96 415.04L122.3 414.91L122.65 414.79L123 414.67L123.36 414.55L123.72 414.44L124.09 414.34L124.47 414.25L124.85 414.16L125.24 414.08L125.64 414L126.04 413.94L126.45 413.87L126.86 413.82L127.29 413.77L127.72 413.73L128.15 413.69L128.59 413.66L129.04 413.64L129.5 413.62L129.96 413.61L130.43 413.61L131.04 413.61L131.64 413.62ZM128.51 439.12L127.43 439.85L126.52 440.85L125.83 442.1L125.39 443.57L125.24 445.25L125.41 446.85L125.88 448.27L126.61 449.5L127.55 450.5L128.66 451.25L129.89 451.72L131.18 451.88L132.44 451.71L133.63 451.24L134.7 450.48L135.61 449.46L136.32 448.22L136.77 446.79L136.93 445.19L136.77 443.59L136.3 442.16L135.58 440.92L134.65 439.91L133.56 439.15L132.35 438.67L131.05 438.5L129.73 438.66L128.51 439.12ZM128.36 421.74L127.34 422.5L126.58 423.51L126.09 424.75L125.93 426.18L126.09 427.61L126.58 428.84L127.36 429.86L128.42 430.62L129.72 431.09L131.24 431.26L132.58 431.09L133.76 430.62L134.74 429.87L135.48 428.88L135.95 427.68L136.12 426.3L135.95 424.82L135.46 423.55L134.69 422.52L133.67 421.75L132.45 421.27L131.05 421.1L129.61 421.27L128.36 421.74Z" id="c7Dj6ebTX"></path><path d="M102.51 297.12L103.21 297.14L103.89 297.17L104.56 297.22L105.21 297.28L105.84 297.35L106.46 297.43L107.07 297.53L107.66 297.64L108.23 297.77L108.79 297.91L109.34 298.06L109.87 298.23L110.39 298.41L110.89 298.61L111.38 298.81L111.86 299.04L112.33 299.28L112.78 299.53L113.22 299.79L113.65 300.08L114.06 300.37L114.47 300.68L114.86 301.01L115.24 301.35L115.61 301.71L115.98 302.08L116.33 302.47L116.67 302.87L117 303.29L117.32 303.72L117.63 304.17L117.93 304.63L118.22 305.11L118.51 305.61L118.78 306.12L119.05 306.65L119.18 306.92L119.31 307.2L119.43 307.47L119.55 307.76L119.66 308.05L119.78 308.34L119.89 308.64L119.99 308.94L120.09 309.25L120.19 309.56L120.28 309.88L120.38 310.2L120.46 310.52L120.55 310.86L120.63 311.19L120.7 311.53L120.78 311.88L120.85 312.23L120.91 312.58L120.97 312.94L121.03 313.31L121.09 313.68L121.14 314.05L121.19 314.43L121.23 314.81L121.27 315.2L121.31 315.6L121.34 315.99L121.37 316.4L121.4 316.8L121.42 317.22L121.44 317.63L121.46 318.05L121.47 318.48L121.48 318.91L121.49 319.34L121.49 319.78L121.47 321.06L121.43 322.31L121.35 323.51L121.24 324.67L121.1 325.8L120.93 326.89L120.73 327.94L120.5 328.95L120.24 329.92L119.95 330.86L119.63 331.76L119.29 332.62L118.91 333.45L118.51 334.24L118.08 334.99L117.62 335.71L117.14 336.39L116.63 337.04L116.09 337.65L115.53 338.23L114.94 338.77L114.32 339.27L113.68 339.75L113.01 340.19L112.32 340.59L111.61 340.96L110.87 341.3L110.11 341.6L109.32 341.87L108.52 342.11L107.68 342.32L106.83 342.49L105.95 342.63L105.05 342.74L104.13 342.82L103.19 342.87L102.23 342.88L101.65 342.88L101.09 342.87L100.55 342.85L100.02 342.83L99.5 342.8L99 342.76L98.51 342.72L98.04 342.67L97.57 342.61L97.12 342.54L96.69 342.47L96.26 342.39L95.85 342.31L95.45 342.22L95.06 342.12L94.68 342.01L94.31 341.9L93.95 341.78L93.6 341.65L93.27 341.52L92.94 341.38L92.61 341.23L92.3 341.07L92 340.91L91.7 340.74L91.41 340.57L91.13 340.39L90.86 340.2L90.59 340L90.33 339.8L90.08 339.59L89.83 339.37L89.58 339.14L89.35 338.91L89.11 338.68L88.88 338.43L88.66 338.18L88.55 338.05L88.44 337.91L88.33 337.78L88.22 337.64L88.12 337.5L88.01 337.36L87.91 337.22L87.81 337.08L87.71 336.94L87.61 336.79L87.51 336.64L87.42 336.49L87.33 336.34L87.23 336.19L87.14 336.04L87.05 335.88L86.96 335.72L86.88 335.56L86.79 335.4L86.71 335.24L86.63 335.08L86.55 334.91L86.47 334.74L86.39 334.57L86.32 334.4L86.24 334.23L86.17 334.06L86.1 333.88L86.03 333.71L85.96 333.53L85.89 333.35L85.83 333.17L85.77 332.98L85.7 332.8L85.65 332.61L85.59 332.42L85.53 332.23L97.91 330.68L97.96 330.96L98.01 331.23L98.07 331.48L98.13 331.73L98.2 331.97L98.27 332.2L98.34 332.42L98.42 332.63L98.51 332.83L98.59 333.03L98.68 333.21L98.78 333.39L98.88 333.56L98.98 333.72L99.09 333.87L99.2 334.01L99.32 334.15L99.44 334.28L99.56 334.4L99.69 334.51L99.82 334.62L99.95 334.71L100.09 334.8L100.23 334.89L100.37 334.97L100.52 335.04L100.67 335.1L100.83 335.16L100.98 335.21L101.14 335.25L101.31 335.29L101.48 335.32L101.64 335.35L101.82 335.37L101.99 335.38L102.17 335.39L102.35 335.39L102.51 335.39L102.67 335.38L102.83 335.37L102.99 335.36L103.14 335.34L103.29 335.31L103.44 335.28L103.59 335.25L103.74 335.21L103.88 335.17L104.02 335.13L104.16 335.08L104.3 335.02L104.44 334.96L104.57 334.9L104.7 334.83L104.83 334.76L104.96 334.69L105.09 334.61L105.21 334.52L105.34 334.43L105.46 334.34L105.58 334.24L105.69 334.14L105.81 334.03L105.92 333.92L106.03 333.81L106.14 333.69L106.25 333.56L106.36 333.44L106.46 333.3L106.56 333.17L106.66 333.03L106.76 332.88L106.86 332.73L106.95 332.58L107.04 332.42L107.11 332.29L107.17 332.16L107.24 332.02L107.3 331.88L107.36 331.73L107.42 331.57L107.48 331.4L107.54 331.23L107.6 331.05L107.66 330.86L107.72 330.66L107.77 330.46L107.83 330.25L107.88 330.04L107.93 329.81L107.99 329.58L108.04 329.34L108.09 329.1L108.14 328.85L108.19 328.59L108.23 328.32L108.28 328.05L108.33 327.76L108.37 327.48L108.41 327.18L108.46 326.88L108.5 326.57L108.54 326.25L108.58 325.92L108.62 325.59L108.65 325.25L108.69 324.91L108.73 324.55L108.76 324.19L108.79 323.82L108.83 323.45L108.86 323.07L108.62 323.31L108.38 323.54L108.14 323.77L107.9 323.99L107.66 324.21L107.43 324.41L107.19 324.61L106.94 324.8L106.7 324.99L106.46 325.17L106.22 325.34L105.97 325.5L105.72 325.66L105.47 325.81L105.22 325.95L104.97 326.09L104.71 326.22L104.45 326.34L104.19 326.46L103.93 326.57L103.66 326.67L103.39 326.77L103.12 326.86L102.84 326.94L102.56 327.02L102.28 327.09L101.99 327.16L101.69 327.22L101.4 327.27L101.1 327.31L100.79 327.35L100.48 327.39L100.17 327.41L99.84 327.44L99.52 327.45L99.19 327.46L98.85 327.46L98.53 327.46L98.21 327.45L97.89 327.43L97.57 327.41L97.26 327.38L96.95 327.35L96.65 327.31L96.34 327.26L96.04 327.21L95.74 327.15L95.45 327.09L95.15 327.02L94.86 326.94L94.58 326.85L94.29 326.76L94.01 326.67L93.73 326.57L93.45 326.46L93.18 326.34L92.91 326.22L92.64 326.1L92.37 325.97L92.11 325.83L91.85 325.68L91.59 325.53L91.34 325.37L91.09 325.21L90.84 325.04L90.59 324.87L90.35 324.69L90.11 324.5L89.87 324.31L89.63 324.11L89.4 323.9L89.17 323.69L88.94 323.47L88.72 323.25L88.5 323.02L88.29 322.78L88.08 322.54L87.88 322.3L87.68 322.06L87.49 321.81L87.31 321.56L87.13 321.3L86.96 321.04L86.79 320.78L86.63 320.52L86.48 320.25L86.33 319.98L86.19 319.7L86.05 319.42L85.92 319.14L85.8 318.86L85.68 318.57L85.57 318.28L85.46 317.99L85.36 317.69L85.27 317.39L85.18 317.09L85.1 316.79L85.03 316.48L84.96 316.17L84.89 315.85L84.84 315.53L84.79 315.21L84.74 314.89L84.7 314.56L84.67 314.23L84.64 313.9L84.62 313.56L84.6 313.22L84.6 312.88L84.59 312.54L84.62 311.81L84.67 311.09L84.75 310.39L84.86 309.69L84.98 309.01L85.14 308.34L85.32 307.69L85.52 307.05L85.75 306.42L86 305.81L86.28 305.22L86.58 304.64L86.91 304.08L87.26 303.54L87.63 303.01L88.03 302.5L88.46 302.01L88.9 301.55L89.37 301.1L89.87 300.67L90.38 300.26L90.92 299.88L91.49 299.52L92.08 299.18L92.69 298.86L93.32 298.57L93.98 298.31L94.66 298.07L95.36 297.85L96.09 297.66L96.83 297.5L97.6 297.36L98.4 297.26L99.21 297.18L100.05 297.13L100.91 297.11L101.79 297.12L102.51 297.12ZM99.84 305.26L98.87 305.84L98.04 306.65L97.35 307.68L96.84 308.95L96.52 310.44L96.41 312.17L96.53 313.92L96.86 315.46L97.4 316.77L98.11 317.86L98.97 318.72L99.97 319.34L101.09 319.72L102.29 319.85L103.56 319.72L104.73 319.36L105.77 318.75L106.67 317.93L107.4 316.88L107.95 315.61L108.3 314.14L108.42 312.48L108.29 310.78L107.92 309.26L107.34 307.95L106.57 306.85L105.64 305.97L104.57 305.33L103.38 304.93L102.1 304.8L100.92 304.91L99.84 305.26Z" id="bd5wQRoqB"></path><path d="M107.8 246.65L120.37 246.65L120.37 201.56C114.18 201.56 110.74 201.56 110.05 201.56C107.36 207.08 103.17 210.73 94.73 213.45C94.73 214.46 94.73 222.54 94.73 223.55C97.55 222.68 99.92 221.75 101.86 220.82C103.8 219.9 105.74 218.66 107.8 217.11C107.8 219.08 107.8 228.93 107.8 246.65" id="a9P0Fr0IR"></path><path d="M150.86 201.59L151.49 201.62L152.09 201.67L152.68 201.72L153.25 201.79L153.8 201.87L154.34 201.97L154.85 202.07L155.35 202.19L155.84 202.31L156.31 202.45L156.76 202.59L157.2 202.75L157.62 202.92L158.03 203.09L158.42 203.28L158.81 203.47L159.17 203.68L159.53 203.89L159.87 204.11L160.2 204.34L160.52 204.57L160.83 204.82L161.12 205.07L161.41 205.32L161.69 205.59L161.96 205.85L162.22 206.1L162.48 206.36L162.72 206.62L162.96 206.89L163.19 207.15L163.4 207.42L163.62 207.7L163.82 207.97L164.01 208.25L164.2 208.54L164.38 208.83L164.55 209.12L164.72 209.42L164.87 209.72L165.03 210.03L165.17 210.34L165.31 210.66L165.44 210.98L165.57 211.31L165.69 211.65L165.81 212L165.92 212.35L166.02 212.71L166.13 213.07L166.22 213.45L166.31 213.83L166.4 214.19L166.49 214.56L166.57 214.93L166.65 215.3L166.73 215.67L166.8 216.04L166.87 216.42L166.94 216.79L167 217.17L167.06 217.55L167.12 217.93L167.17 218.31L167.22 218.69L167.27 219.07L167.31 219.46L167.35 219.84L167.39 220.23L167.42 220.62L167.45 221.01L167.48 221.4L167.5 221.79L167.52 222.19L167.54 222.58L167.55 222.98L167.56 223.37L167.56 223.77L167.57 224.17L167.56 225.05L167.54 225.92L167.51 226.77L167.47 227.6L167.42 228.42L167.36 229.22L167.29 229.99L167.2 230.75L167.11 231.5L167 232.22L166.88 232.93L166.75 233.62L166.61 234.29L166.46 234.94L166.29 235.58L166.12 236.2L165.93 236.8L165.73 237.38L165.52 237.95L165.3 238.49L165.07 239.02L164.82 239.53L164.57 240.03L164.3 240.5L164.03 240.96L163.74 241.4L163.44 241.82L163.12 242.22L162.79 242.6L162.45 242.97L162.08 243.33L161.7 243.66L161.31 243.99L160.9 244.3L160.47 244.59L160.02 244.87L159.56 245.14L159.08 245.39L158.59 245.62L158.08 245.84L157.55 246.05L157.01 246.24L156.45 246.41L155.88 246.57L155.28 246.71L154.68 246.84L154.05 246.96L153.41 247.06L152.76 247.14L152.09 247.21L151.4 247.26L150.7 247.3L149.98 247.32L149.24 247.33L148.42 247.32L147.62 247.29L146.85 247.25L146.11 247.18L145.38 247.1L144.68 246.99L144.01 246.87L143.35 246.73L142.72 246.57L142.1 246.39L141.51 246.19L140.94 245.97L140.39 245.73L139.85 245.47L139.34 245.2L138.84 244.9L138.36 244.59L137.9 244.26L137.46 243.91L137.03 243.53L136.61 243.14L136.21 242.73L135.83 242.3L135.46 241.86L135.1 241.39L134.75 240.9L134.42 240.4L134.18 240.02L133.95 239.62L133.73 239.2L133.51 238.77L133.3 238.31L133.1 237.83L132.91 237.34L132.73 236.82L132.56 236.29L132.39 235.74L132.23 235.17L132.09 234.59L131.95 234L131.82 233.38L131.69 232.76L131.58 232.12L131.48 231.46L131.39 230.79L131.3 230.11L131.23 229.42L131.16 228.72L131.11 228.01L131.06 227.28L131.03 226.55L131 225.8L130.99 225.05L130.98 224.29L130.99 223.37L131.01 222.46L131.04 221.58L131.08 220.72L131.14 219.87L131.2 219.05L131.28 218.25L131.38 217.47L131.48 216.72L131.6 215.98L131.73 215.26L131.88 214.57L132.03 213.89L132.2 213.24L132.38 212.61L132.58 211.99L132.78 211.4L133 210.83L133.23 210.28L133.48 209.76L133.73 209.25L134 208.76L134.29 208.3L134.58 207.85L134.89 207.43L135.21 207.02L135.55 206.64L135.89 206.27L136.25 205.91L136.63 205.57L137.02 205.24L137.42 204.93L137.83 204.63L138.26 204.34L138.7 204.07L139.15 203.81L139.62 203.57L140.1 203.34L140.59 203.12L141.1 202.92L141.62 202.73L142.15 202.56L142.69 202.4L143.25 202.26L143.82 202.12L144.41 202.01L145.01 201.9L145.62 201.81L146.24 201.74L146.88 201.67L147.53 201.63L148.19 201.59L148.87 201.57L149.55 201.56L150.22 201.57L150.86 201.59ZM148.27 209.81L147.84 209.91L147.43 210.04L147.05 210.2L146.68 210.41L146.34 210.65L146.01 210.92L145.7 211.23L145.42 211.58L145.15 211.96L144.9 212.38L144.68 212.84L144.47 213.34L144.28 213.91L144.11 214.54L143.95 215.23L143.81 215.99L143.69 216.81L143.59 217.7L143.5 218.65L143.43 219.66L143.37 220.74L143.33 221.88L143.31 223.09L143.3 224.35L143.31 225.62L143.34 226.83L143.38 227.97L143.44 229.05L143.52 230.06L143.62 231.01L143.74 231.9L143.87 232.72L144.02 233.48L144.19 234.17L144.38 234.8L144.58 235.37L144.8 235.87L145.05 236.33L145.32 236.75L145.6 237.13L145.89 237.48L146.2 237.79L146.53 238.06L146.86 238.3L147.22 238.51L147.59 238.67L147.98 238.8L148.38 238.9L148.8 238.95L149.24 238.97L149.81 238.94L150.35 238.85L150.88 238.7L151.37 238.48L151.85 238.2L152.29 237.86L152.71 237.45L153.09 236.97L153.44 236.42L153.76 235.81L154.04 235.12L154.29 234.36L154.49 233.52L154.59 233.06L154.68 232.56L154.77 232.03L154.84 231.46L154.91 230.86L154.97 230.22L155.03 229.54L155.08 228.82L155.11 228.07L155.14 227.27L155.17 226.44L155.18 225.57L155.18 224.66L155.17 223.34L155.15 222.09L155.1 220.9L155.04 219.78L154.96 218.73L154.86 217.75L154.75 216.83L154.61 215.98L154.46 215.21L154.29 214.5L154.11 213.85L153.9 213.28L153.68 212.77L153.44 212.32L153.18 211.91L152.91 211.53L152.62 211.18L152.31 210.88L151.98 210.61L151.63 210.38L151.27 210.18L150.88 210.02L150.48 209.9L150.07 209.81L149.63 209.76L149.18 209.74L148.71 209.76L148.27 209.81Z" id="i13dpUB8YX"></path><path d="M180.39 160L192.96 160L192.96 114.91C186.77 114.91 183.33 114.91 182.64 114.91C179.95 120.43 175.76 124.08 167.32 126.8C167.32 127.81 167.32 135.89 167.32 136.9C170.14 136.03 172.51 135.1 174.45 134.17C176.39 133.25 178.33 132.01 180.39 130.46C180.39 132.43 180.39 142.28 180.39 160" id="bZGMZLSq"></path><path d="M219.19 160L231.76 160L231.76 114.91C225.57 114.91 222.13 114.91 221.45 114.91C218.76 120.43 214.57 124.08 206.12 126.8C206.12 127.81 206.12 135.89 206.12 136.9C208.94 136.03 211.31 135.1 213.25 134.17C215.19 133.25 217.13 132.01 219.19 130.46C219.19 132.43 219.19 142.28 219.19 160" id="c36uBy0f8z"></path></defs><g><g><g><use xlink:href="#arFnXiYk5" opacity="1" fill="#ffffff" fill-opacity="1"></use><g><use xlink:href="#arFnXiYk5" opacity="1" fill-opacity="0" stroke="#000000" stroke-width="1" stroke-opacity="0"></use></g></g><g><use xlink:href="#d3czvRXYqa" opacity="1" fill="#000000" fill-opacity="0"></use><g><use xlink:href="#d3czvRXYqa" opacity="1" fill-opacity="0" stroke="#000000" stroke-width="5.31" stroke-opacity="1"></use></g></g><g><use xlink:href="#b17HNfQfRP" opacity="1" fill="#000000" fill-opacity="0"></use><g><use xlink:href="#b17HNfQfRP" opacity="1" fill-opacity="0" stroke="#000000" stroke-width="5.31" stroke-opacity="1"></use></g></g><g><use xlink:href="#g2DQK8nsi6" opacity="1" fill="#000000" fill-opacity="0"></use><g><use xlink:href="#g2DQK8nsi6" opacity="1" fill-opacity="0" stroke="#000000" stroke-width="5.31" stroke-opacity="1"></use></g></g><g><use xlink:href="#c1cL2Chsyc" opacity="1" fill="#000000" fill-opacity="0"></use><g><use xlink:href="#c1cL2Chsyc" opacity="1" fill-opacity="0" stroke="#000000" stroke-width="5.31" stroke-opacity="1"></use></g></g><g><use xlink:href="#clWio7KSQ" opacity="1" fill="#000000" fill-opacity="0"></use><g><use xlink:href="#clWio7KSQ" opacity="1" fill-opacity="0" stroke="#000000" stroke-width="5.31" stroke-opacity="1"></use></g></g><g><use xlink:href="#aJFsPEhVP" opacity="1" fill="#000000" fill-opacity="0"></use><g><use xlink:href="#aJFsPEhVP" opacity="1" fill-opacity="0" stroke="#000000" stroke-width="5.31" stroke-opacity="1"></use></g></g><g><use xlink:href="#e1ON53Ce2" opacity="1" fill="#ffffff" fill-opacity="1"></use><g><use xlink:href="#e1ON53Ce2" opacity="1" fill-opacity="0" stroke="#000000" stroke-width="1" stroke-opacity="0"></use></g></g><g><use xlink:href="#a5izmtyUu" opacity="1" fill="#000000" fill-opacity="1"></use><g><use xlink:href="#a5izmtyUu" opacity="1" fill-opacity="0" stroke="#808000" stroke-width="0.71" stroke-opacity="1"></use></g></g><g><use xlink:href="#f4KznCRWu5" opacity="1" fill="#000000" fill-opacity="1"></use><g><use xlink:href="#f4KznCRWu5" opacity="1" fill-opacity="0" stroke="#000000" stroke-width="1" stroke-opacity="0"></use></g></g><g><use xlink:href="#d3Y66K3Vd" opacity="1" fill="#000000" fill-opacity="1"></use><g><use xlink:href="#d3Y66K3Vd" opacity="1" fill-opacity="0" stroke="#000000" stroke-width="1" stroke-opacity="0"></use></g></g><g><use xlink:href="#c2vaiyEzT" opacity="1" fill="#000000" fill-opacity="1"></use><g><use xlink:href="#c2vaiyEzT" opacity="1" fill-opacity="0" stroke="#000000" stroke-width="1" stroke-opacity="0"></use></g></g><g><use xlink:href="#ab069vhlA" opacity="1" fill="#000000" fill-opacity="1"></use><g><use xlink:href="#ab069vhlA" opacity="1" fill-opacity="0" stroke="#000000" stroke-width="1" stroke-opacity="0"></use></g></g><g><use xlink:href="#bDlRpzHBa" opacity="1" fill="#000000" fill-opacity="1"></use><g><use xlink:href="#bDlRpzHBa" opacity="1" fill-opacity="0" stroke="#000000" stroke-width="1" stroke-opacity="0"></use></g></g><g><use xlink:href="#cdJJiYUBo" opacity="1" fill="#000000" fill-opacity="1"></use><g><use xlink:href="#cdJJiYUBo" opacity="1" fill-opacity="0" stroke="#000000" stroke-width="1" stroke-opacity="0"></use></g></g><g><use xlink:href="#dq6kv8cRH" opacity="1" fill="#000000" fill-opacity="1"></use><g><use xlink:href="#dq6kv8cRH" opacity="1" fill-opacity="0" stroke="#000000" stroke-width="1" stroke-opacity="0"></use></g></g><g><use xlink:href="#b1PcSO38i" opacity="1" fill="#000000" fill-opacity="1"></use><g><use xlink:href="#b1PcSO38i" opacity="1" fill-opacity="0" stroke="#000000" stroke-width="1" stroke-opacity="0"></use></g></g><g><use xlink:href="#bsRq5PGwH" opacity="1" fill="#000000" fill-opacity="1"></use><g><use xlink:href="#bsRq5PGwH" opacity="1" fill-opacity="0" stroke="#000000" stroke-width="1" stroke-opacity="0"></use></g></g><g><use xlink:href="#c7Dj6ebTX" opacity="1" fill="#000000" fill-opacity="1"></use><g><use xlink:href="#c7Dj6ebTX" opacity="1" fill-opacity="0" stroke="#000000" stroke-width="1" stroke-opacity="0"></use></g></g><g><use xlink:href="#bd5wQRoqB" opacity="1" fill="#000000" fill-opacity="1"></use><g><use xlink:href="#bd5wQRoqB" opacity="1" fill-opacity="0" stroke="#000000" stroke-width="1" stroke-opacity="0"></use></g></g><g><use xlink:href="#a9P0Fr0IR" opacity="1" fill="#000000" fill-opacity="1"></use><g><use xlink:href="#a9P0Fr0IR" opacity="1" fill-opacity="0" stroke="#000000" stroke-width="1" stroke-opacity="0"></use></g></g><g><use xlink:href="#i13dpUB8YX" opacity="1" fill="#000000" fill-opacity="1"></use><g><use xlink:href="#i13dpUB8YX" opacity="1" fill-opacity="0" stroke="#000000" stroke-width="1" stroke-opacity="0"></use></g></g><g><use xlink:href="#bZGMZLSq" opacity="1" fill="#000000" fill-opacity="1"></use><g><use xlink:href="#bZGMZLSq" opacity="1" fill-opacity="0" stroke="#000000" stroke-width="1" stroke-opacity="0"></use></g></g><g><use xlink:href="#c36uBy0f8z" opacity="1" fill="#000000" fill-opacity="1"></use><g><use xlink:href="#c36uBy0f8z" opacity="1" fill-opacity="0" stroke="#000000" stroke-width="1" stroke-opacity="0"></use></g></g></g></g></svg>